PathFileType	4	(X/Y/Z) flx_2kg_3.trc																										
DataRate	CameraRate	NumFrames	NumMarkers	Units	OrigDataRate	OrigDataStartFrame	OrigNumFrames																					
100	100	34	9	mm	100	581	774																					
Frame#	Time	gu			centelbow			EpL			centpxt8			centijc7			ij			ts			aa			ai		
		X1	Y1	Z1	X2	Y2	Z2	X3	Y3	Z3	X4	Y4	Z4	X5	Y5	Z5	X6	Y6	Z6	X7	Y7	Z7	X8	Y8	Z8	X9	Y9	Z9  
580	5.8	-71.049	-6.963	169.888	-86.433	-248.867	217.113	-64.568	-241.768	239.716	-46.816	-153.158	-8.669	-46.816	31.938	-8.669	0	0	0	-137.487	28.491	56.367	-99.66	25.426	169.435	-156.685	-83.035	65.265
581	5.81	-71.435	-6.755	170.954	-88.817	-248.471	218.449	-66.934	-241.518	241.081	-46.816	-153.158	-8.669	-46.816	31.938	-8.669	0	0	0	-137.521	28.52	56.319	-99.944	25.361	169.468	-156.742	-83.012	65.082
582	5.82	-71.842	-6.586	171.54	-91.275	-248.074	219.397	-69.289	-241.284	241.98	-46.816	-153.158	-8.669	-46.816	31.938	-8.669	0	0	0	-137.542	28.439	56.423	-100.271	25.168	169.671	-156.816	-83.096	65.034
583	5.83	-71.977	-6.572	171.531	-93.463	-247.819	219.723	-71.306	-241.217	242.192	-46.816	-153.158	-8.669	-46.816	31.938	-8.669	0	0	0	-137.43	28.271	56.615	-100.494	24.884	169.969	-156.754	-83.267	65.063
584	5.84	-71.84	-6.779	171.231	-95.356	-247.795	219.633	-72.991	-241.402	241.958	-46.816	-153.158	-8.669	-46.816	31.938	-8.669	0	0	0	-137.166	28.07	56.803	-100.557	24.598	170.26	-156.507	-83.476	65.108
585	5.85	-71.599	-6.959	170.847	-97.062	-247.759	219.34	-74.486	-241.586	241.513	-46.816	-153.158	-8.669	-46.816	31.938	-8.669	0	0	0	-136.862	27.95	56.955	-100.547	24.453	170.506	-156.155	-83.612	65.164
586	5.86	-71.387	-6.758	170.33	-98.651	-247.35	218.872	-75.872	-241.39	240.895	-46.816	-153.158	-8.669	-46.816	31.938	-8.669	0	0	0	-136.566	27.988	57.053	-100.494	24.516	170.682	-155.757	-83.596	65.206
587	5.87	-71.289	-6.35	169.747	-100.331	-246.734	218.29	-77.364	-240.987	240.174	-46.816	-153.158	-8.669	-46.816	31.938	-8.669	0	0	0	-136.319	28.163	57.036	-100.42	24.717	170.72	-155.397	-83.443	65.145
588	5.88	-71.322	-6.25	169.299	-102.309	-246.426	217.669	-79.182	-240.918	239.446	-46.816	-153.158	-8.669	-46.816	31.938	-8.669	0	0	0	-136.22	28.342	56.936	-100.444	24.87	170.659	-155.23	-83.28	64.975
589	5.89	-71.365	-6.654	169.009	-104.47	-246.63	216.966	-81.228	-241.386	238.685	-46.816	-153.158	-8.669	-46.816	31.938	-8.669	0	0	0	-136.225	28.415	56.918	-100.565	24.851	170.674	-155.223	-83.218	64.841
590	5.9	-71.343	-7.422	168.741	-106.61	-247.203	216.131	-83.311	-242.224	237.852	-46.816	-153.158	-8.669	-46.816	31.938	-8.669	0	0	0	-136.191	28.407	57.051	-100.642	24.715	170.838	-155.193	-83.236	64.829
591	5.91	-71.312	-8.268	168.434	-108.645	-247.846	215.26	-85.35	-243.104	237.038	-46.816	-153.158	-8.669	-46.816	31.938	-8.669	0	0	0	-136.054	28.373	57.225	-100.593	24.564	171.035	-155.046	-83.281	64.867
592	5.92	-71.314	-8.839	168.091	-110.497	-248.213	214.452	-87.259	-243.66	236.331	-46.816	-153.158	-8.669	-46.816	31.938	-8.669	0	0	0	-135.844	28.36	57.272	-100.432	24.466	171.095	-154.808	-83.305	64.813
593	5.93	-71.364	-9.105	167.751	-112.191	-248.281	213.708	-89.05	-243.879	235.72	-46.816	-153.158	-8.669	-46.816	31.938	-8.669	0	0	0	-135.643	28.412	57.096	-100.245	24.457	170.922	-154.568	-83.265	64.563
594	5.94	-71.447	-9.433	167.564	-113.866	-248.421	213.061	-90.852	-244.158	235.234	-46.816	-153.158	-8.669	-46.816	31.938	-8.669	0	0	0	-135.471	28.495	56.784	-100.092	24.481	170.613	-154.365	-83.192	64.179
595	5.95	-71.483	-9.895	167.521	-115.504	-248.697	212.464	-92.639	-244.576	234.817	-46.816	-153.158	-8.669	-46.816	31.938	-8.669	0	0	0	-135.313	28.548	56.561	-100.003	24.458	170.408	-154.207	-83.144	63.868
596	5.96	-71.426	-10.103	167.355	-116.951	-248.731	211.723	-94.243	-244.741	234.258	-46.816	-153.158	-8.669	-46.816	31.938	-8.669	0	0	0	-135.238	28.579	56.546	-100.073	24.386	170.434	-154.176	-83.114	63.739
597	5.97	-71.323	-9.995	167.067	-118.215	-248.458	210.894	-95.667	-244.582	233.61	-46.816	-153.158	-8.669	-46.816	31.938	-8.669	0	0	0	-135.265	28.651	56.627	-100.303	24.34	170.574	-154.278	-83.037	63.69
598	5.98	-71.32	-10.009	167.068	-119.554	-248.296	210.392	-97.177	-244.523	233.293	-46.816	-153.158	-8.669	-46.816	31.938	-8.669	0	0	0	-135.255	28.775	56.62	-100.519	24.341	170.631	-154.346	-82.908	63.545
599	5.99	-71.508	-10.459	167.712	-121.19	-248.531	210.58	-98.991	-244.864	233.671	-46.816	-153.158	-8.669	-46.816	31.938	-8.669	0	0	0	-135.13	28.797	56.468	-100.608	24.234	170.539	-154.29	-82.884	63.249
600	6	-71.723	-11.109	168.902	-122.951	-248.924	211.377	-100.915	-245.369	234.641	-46.816	-153.158	-8.669	-46.816	31.938	-8.669	0	0	0	-134.982	28.597	56.197	-100.637	23.907	170.317	-154.212	-83.079	62.842
601	6.01	-71.777	-11.423	169.975	-124.5	-248.969	212.122	-102.575	-245.535	235.508	-46.816	-153.158	-8.669	-46.816	31.938	-8.669	0	0	0	-134.868	28.355	55.847	-100.647	23.552	169.999	-154.161	-83.317	62.378
602	6.02	-71.778	-11.203	170.172	-125.817	-248.505	212.032	-103.923	-245.201	235.466	-46.816	-153.158	-8.669	-46.816	31.938	-8.669	0	0	0	-134.686	28.289	55.527	-100.555	23.393	169.702	-154.018	-83.382	61.962
603	6.03	-71.92	-10.791	169.462	-127.12	-247.878	211.016	-105.192	-244.719	234.439	-46.816	-153.158	-8.669	-46.816	31.938	-8.669	0	0	0	-134.37	28.309	55.362	-100.338	23.332	169.564	-153.715	-83.366	61.704
604	6.04	-72.21	-10.611	168.6	-128.537	-247.503	209.757	-106.56	-244.501	233.154	-46.816	-153.158	-8.669	-46.816	31.938	-8.669	0	0	0	-134.033	28.253	55.343	-100.122	23.208	169.577	-153.372	-83.427	61.593
605	6.05	-72.564	-10.814	168.294	-130.088	-247.509	208.924	-108.093	-244.671	232.325	-46.816	-153.158	-8.669	-46.816	31.938	-8.669	0	0	0	-133.824	28.175	55.395	-100.042	23.072	169.665	-153.141	-83.514	61.558
606	6.06	-72.835	-11.381	168.57	-131.676	-247.859	208.574	-109.71	-245.188	232.022	-46.816	-153.158	-8.669	-46.816	31.938	-8.669	0	0	0	-133.746	28.147	55.545	-100.098	22.984	169.851	-153.043	-83.551	61.618
607	6.07	-72.84	-12.04	168.869	-133.043	-248.281	208.243	-111.142	-245.766	231.769	-46.816	-153.158	-8.669	-46.816	31.938	-8.669	0	0	0	-133.689	28.126	55.798	-100.178	22.896	170.142	-152.991	-83.576	61.782
608	6.08	-72.658	-12.235	168.667	-134.108	-248.243	207.506	-112.289	-245.859	231.121	-46.816	-153.158	-8.669	-46.816	31.938	-8.669	0	0	0	-133.582	28.137	55.983	-100.191	22.848	170.359	-152.896	-83.567	61.89
609	6.09	-72.55	-11.853	168.078	-135.124	-247.639	206.471	-113.4	-245.361	230.184	-46.816	-153.158	-8.669	-46.816	31.938	-8.669	0	0	0	-133.373	28.281	55.99	-100.096	22.962	170.398	-152.677	-83.427	61.845
610	6.1	-72.573	-11.447	167.705	-136.288	-247	205.649	-114.684	-244.818	229.48	-46.816	-153.158	-8.669	-46.816	31.938	-8.669	0	0	0	-133.032	28.488	55.993	-99.905	23.162	170.444	-152.305	-83.227	61.804
611	6.11	-72.619	-11.387	167.915	-137.518	-246.695	205.368	-116.055	-244.609	229.335	-46.816	-153.158	-8.669	-46.816	31.938	-8.669	0	0	0	-132.702	28.525	56.174	-99.769	23.193	170.681	-151.953	-83.197	61.937
612	6.12	-72.582	-11.499	168.492	-138.607	-246.566	205.486	-117.285	-244.567	229.586	-46.816	-153.158	-8.669	-46.816	31.938	-8.669	0	0	0	-132.55	28.296	56.434	-99.8	22.961	170.993	-151.791	-83.43	62.158
613	6.13	-72.376	-11.589	168.991	-139.446	-246.415	205.634	-118.244	-244.494	229.846	-46.816	-153.158	-8.669	-46.816	31.938	-8.669	0	0	0	-132.479	27.915	56.499	-99.852	22.598	171.094	-151.698	-83.815	62.212
